<svg id="visual" viewBox="0 0 900 300" width="900" height="300" xmlns="http://www.w3.org/2000/svg" xmlns:xlink="http://www.w3.org/1999/xlink" version="1.1"><rect x="0" y="0" width="900" height="300" fill="#3A3A3A"></rect><path d="M0 149L21.5 153.2C43 157.3 86 165.7 128.8 167.5C171.7 169.3 214.3 164.7 257.2 159.2C300 153.7 343 147.3 385.8 141.8C428.7 136.3 471.3 131.7 514.2 135.5C557 139.3 600 151.7 642.8 156C685.7 160.3 728.3 156.7 771.2 157C814 157.3 857 161.7 878.5 163.8L900 166L900 301L878.5 301C857 301 814 301 771.2 301C728.3 301 685.7 301 642.8 301C600 301 557 301 514.2 301C471.3 301 428.7 301 385.8 301C343 301 300 301 257.2 301C214.3 301 171.7 301 128.8 301C86 301 43 301 21.5 301L0 301Z" fill="#393939"></path><path d="M0 191L21.5 194.3C43 197.7 86 204.3 128.8 202C171.7 199.7 214.3 188.3 257.2 186.2C300 184 343 191 385.8 192.7C428.7 194.3 471.3 190.7 514.2 189.7C557 188.7 600 190.3 642.8 189C685.7 187.7 728.3 183.3 771.2 182.5C814 181.7 857 184.3 878.5 185.7L900 187L900 301L878.5 301C857 301 814 301 771.2 301C728.3 301 685.7 301 642.8 301C600 301 557 301 514.2 301C471.3 301 428.7 301 385.8 301C343 301 300 301 257.2 301C214.3 301 171.7 301 128.8 301C86 301 43 301 21.5 301L0 301Z" fill="#353535"></path><path d="M0 187L21.5 194.5C43 202 86 217 128.8 218.2C171.7 219.3 214.3 206.7 257.2 200.5C300 194.3 343 194.7 385.8 196C428.7 197.3 471.3 199.7 514.2 206.3C557 213 600 224 642.8 223.8C685.7 223.7 728.3 212.3 771.2 204.5C814 196.7 857 192.3 878.5 190.2L900 188L900 301L878.5 301C857 301 814 301 771.2 301C728.3 301 685.7 301 642.8 301C600 301 557 301 514.2 301C471.3 301 428.7 301 385.8 301C343 301 300 301 257.2 301C214.3 301 171.7 301 128.8 301C86 301 43 301 21.5 301L0 301Z" fill="#313131"></path><path d="M0 232L21.5 230.5C43 229 86 226 128.8 229.7C171.7 233.3 214.3 243.7 257.2 249.3C300 255 343 256 385.8 253.7C428.7 251.3 471.3 245.7 514.2 245.3C557 245 600 250 642.8 251.5C685.7 253 728.3 251 771.2 247.8C814 244.7 857 240.3 878.5 238.2L900 236L900 301L878.5 301C857 301 814 301 771.2 301C728.3 301 685.7 301 642.8 301C600 301 557 301 514.2 301C471.3 301 428.7 301 385.8 301C343 301 300 301 257.2 301C214.3 301 171.7 301 128.8 301C86 301 43 301 21.5 301L0 301Z" fill="#2d2d2d"></path><path d="M0 269L21.5 268.5C43 268 86 267 128.8 264.5C171.7 262 214.3 258 257.2 259.8C300 261.7 343 269.3 385.8 270.2C428.7 271 471.3 265 514.2 265.7C557 266.3 600 273.7 642.8 275.5C685.7 277.3 728.3 273.7 771.2 270.5C814 267.3 857 264.7 878.5 263.3L900 262L900 301L878.5 301C857 301 814 301 771.2 301C728.3 301 685.7 301 642.8 301C600 301 557 301 514.2 301C471.3 301 428.7 301 385.8 301C343 301 300 301 257.2 301C214.3 301 171.7 301 128.8 301C86 301 43 301 21.5 301L0 301Z" fill="#29292a"></path></svg>